<svg width="100%" viewBox="0 0 680 820" role="img" xmlns="http://www.w3.org/2000/svg">
  <title>ai-test-automation-python architecture overview</title>
  <desc>Full architecture diagram showing shared foundation, 4 project capstones, test layers, CI pipeline and design patterns</desc>
  <defs>
    <marker id="arrow" viewBox="0 0 10 10" refX="8" refY="5" markerWidth="6" markerHeight="6" orient="auto-start-reverse">
      <path d="M2 1L8 5L2 9" fill="none" stroke="#888780" stroke-width="1.5" stroke-linecap="round" stroke-linejoin="round"/>
    </marker>
    <style>
      text { font-family: -apple-system, BlinkMacSystemFont, 'Segoe UI', sans-serif; fill: #2C2C2A; }
      .th { font-size: 14px; font-weight: 600; }
      .ts { font-size: 12px; font-weight: 400; fill: #5F5E5A; }
      .c-gray rect { fill: #F1EFE8; stroke: #888780; }
      .c-purple rect { fill: #EEEDFE; stroke: #7F77DD; }
      .c-teal rect { fill: #E1F5EE; stroke: #1D9E75; }
      .c-amber rect { fill: #FAEEDA; stroke: #BA7517; }
      .c-coral rect { fill: #FAECE7; stroke: #D85A30; }
      .c-blue rect { fill: #E6F1FB; stroke: #378ADD; }
      .c-green rect { fill: #EAF3DE; stroke: #639922; }
      .arr { stroke: #888780; stroke-width: 1.5; fill: none; }
    </style>
  </defs>

  <!-- Title -->
  <text class="th" x="340" y="28" text-anchor="middle" font-size="15">ai-test-automation-python</text>
  <text class="ts" x="340" y="46" text-anchor="middle">95 tests · 4 domains · 11 parallel CI jobs</text>

  <!-- SHARED FOUNDATION -->
  <g class="c-gray">
    <rect x="30" y="60" width="620" height="110" rx="14" stroke-width="0.5"/>
    <text class="th" x="340" y="82" text-anchor="middle">shared/ — reusable foundation</text>
  </g>
  <g class="c-purple">
    <rect x="50" y="92" width="96" height="64" rx="8" stroke-width="0.5"/>
    <text class="th" x="98" y="116" text-anchor="middle">config/</text>
    <text class="ts" x="98" y="132" text-anchor="middle">Singleton</text>
    <text class="ts" x="98" y="146" text-anchor="middle">env vars</text>
  </g>
  <g class="c-teal">
    <rect x="158" y="92" width="96" height="64" rx="8" stroke-width="0.5"/>
    <text class="th" x="206" y="116" text-anchor="middle">http/</text>
    <text class="ts" x="206" y="132" text-anchor="middle">Facade</text>
    <text class="ts" x="206" y="146" text-anchor="middle">httpx client</text>
  </g>
  <g class="c-amber">
    <rect x="266" y="92" width="96" height="64" rx="8" stroke-width="0.5"/>
    <text class="th" x="314" y="116" text-anchor="middle">ai/</text>
    <text class="ts" x="314" y="132" text-anchor="middle">Template</text>
    <text class="ts" x="314" y="146" text-anchor="middle">Method</text>
  </g>
  <g class="c-coral">
    <rect x="374" y="92" width="96" height="64" rx="8" stroke-width="0.5"/>
    <text class="th" x="422" y="116" text-anchor="middle">async/</text>
    <text class="ts" x="422" y="132" text-anchor="middle">AsyncPoller</text>
    <text class="ts" x="422" y="146" text-anchor="middle">EventSeq</text>
  </g>
  <g class="c-blue">
    <rect x="482" y="92" width="96" height="64" rx="8" stroke-width="0.5"/>
    <text class="th" x="530" y="116" text-anchor="middle">evaluation/</text>
    <text class="ts" x="530" y="132" text-anchor="middle">DeepEval</text>
    <text class="ts" x="530" y="146" text-anchor="middle">LLM judge</text>
  </g>

  <!-- Arrow down -->
  <line x1="340" y1="170" x2="340" y2="195" class="arr" marker-end="url(#arrow)"/>

  <!-- PROJECTS ROW -->
  <g class="c-teal">
    <rect x="30" y="200" width="148" height="44" rx="10" stroke-width="0.5"/>
    <text class="th" x="104" y="220" text-anchor="middle">healthcare_fhir</text>
    <text class="ts" x="104" y="236" text-anchor="middle">FHIR R4</text>
  </g>
  <g class="c-purple">
    <rect x="190" y="200" width="148" height="44" rx="10" stroke-width="0.5"/>
    <text class="th" x="264" y="220" text-anchor="middle">insurance</text>
    <text class="ts" x="264" y="236" text-anchor="middle">Policy CRUD</text>
  </g>
  <g class="c-amber">
    <rect x="350" y="200" width="148" height="44" rx="10" stroke-width="0.5"/>
    <text class="th" x="424" y="220" text-anchor="middle">fintech</text>
    <text class="ts" x="424" y="236" text-anchor="middle">Coinbase market</text>
  </g>
  <g class="c-coral">
    <rect x="510" y="200" width="140" height="44" rx="10" stroke-width="0.5"/>
    <text class="th" x="580" y="220" text-anchor="middle">petstore</text>
    <text class="ts" x="580" y="236" text-anchor="middle">REST API</text>
  </g>

  <!-- Arrow down -->
  <line x1="340" y1="244" x2="340" y2="269" class="arr" marker-end="url(#arrow)"/>

  <!-- LAYERS -->
  <g class="c-blue">
    <rect x="30" y="274" width="620" height="44" rx="10" stroke-width="0.5"/>
    <text class="th" x="340" y="294" text-anchor="middle">api/ — config · client · models · data · assertions · tests</text>
    <text class="ts" x="340" y="310" text-anchor="middle">Singleton · Facade · CRTP · Factory · Fluent Interface · SOLID</text>
  </g>
  <g class="c-green">
    <rect x="30" y="328" width="620" height="44" rx="10" stroke-width="0.5"/>
    <text class="th" x="340" y="348" text-anchor="middle">ui/ — pages · tests (Playwright)</text>
    <text class="ts" x="340" y="364" text-anchor="middle">Page Object Model · BasePage · auto-wait · no XPath</text>
  </g>
  <g class="c-amber">
    <rect x="30" y="382" width="620" height="44" rx="10" stroke-width="0.5"/>
    <text class="th" x="340" y="402" text-anchor="middle">ai/generated/ — AI-generated test suites</text>
    <text class="ts" x="340" y="418" text-anchor="middle">37 tests · claude-sonnet-4-6 · StalenessDetector · DeepEval scored</text>
  </g>

  <!-- Arrow down -->
  <line x1="340" y1="426" x2="340" y2="451" class="arr" marker-end="url(#arrow)"/>

  <!-- CI -->
  <g class="c-gray">
    <rect x="30" y="456" width="620" height="54" rx="14" stroke-width="0.5"/>
    <text class="th" x="340" y="478" text-anchor="middle">GitHub Actions CI — 11 parallel jobs</text>
    <text class="ts" x="340" y="496" text-anchor="middle">FHIR API · FHIR UI · Insurance · Fintech · PetStore · Async · EventSeq · DeepEval</text>
  </g>

  <!-- Arrow down -->
  <line x1="340" y1="510" x2="340" y2="535" class="arr" marker-end="url(#arrow)"/>

  <!-- TEST COUNT -->
  <g class="c-teal">
    <rect x="30" y="540" width="620" height="54" rx="14" stroke-width="0.5"/>
    <text class="th" x="340" y="562" text-anchor="middle">95 passed · 1 skipped · 0 errors</text>
    <text class="ts" x="340" y="580" text-anchor="middle">Hand-crafted · AI-generated · Playwright UI · Async polling · LLM evaluation</text>
  </g>

  <!-- PATTERNS -->
  <text class="th" x="340" y="622" text-anchor="middle">Design patterns applied throughout</text>
  <g class="c-purple"><rect x="30" y="632" width="90" height="32" rx="6" stroke-width="0.5"/><text class="ts" x="75" y="652" text-anchor="middle">Singleton</text></g>
  <g class="c-teal"><rect x="132" y="632" width="72" height="32" rx="6" stroke-width="0.5"/><text class="ts" x="168" y="652" text-anchor="middle">Facade</text></g>
  <g class="c-amber"><rect x="216" y="632" width="64" height="32" rx="6" stroke-width="0.5"/><text class="ts" x="248" y="652" text-anchor="middle">Factory</text></g>
  <g class="c-coral"><rect x="292" y="632" width="56" height="32" rx="6" stroke-width="0.5"/><text class="ts" x="320" y="652" text-anchor="middle">CRTP</text></g>
  <g class="c-blue"><rect x="360" y="632" width="96" height="32" rx="6" stroke-width="0.5"/><text class="ts" x="408" y="652" text-anchor="middle">Fluent Interface</text></g>
  <g class="c-green"><rect x="468" y="632" width="112" height="32" rx="6" stroke-width="0.5"/><text class="ts" x="524" y="652" text-anchor="middle">Template Method</text></g>

  <g class="c-gray">
    <rect x="30" y="676" width="620" height="32" rx="6" stroke-width="0.5"/>
    <text class="ts" x="340" y="696" text-anchor="middle">SOLID — SRP · OCP · LSP · ISP · DIP applied throughout all layers</text>
  </g>

  <text class="ts" x="340" y="736" text-anchor="middle">Python 3.13 · pytest · httpx · Playwright · Anthropic SDK · Pydantic · Faker · DeepEval</text>
  <text class="ts" x="340" y="758" text-anchor="middle">github.com/njmarshall/ai-test-automation-python</text>
</svg>
